# xmcd CD database file
#
# Track frame offsets:
#	150
#	10459
#	20006
#	34477
#	46659
#	58319
#	69242
#	79817
#	86579
#	100310
#	109214
#	117377
#	126183
#	138403
#	146032
#
# Disc length: 2097 seconds
#
# Revision: 0
# Processed by: cddbd v1.5.1PL0 Copyright (c) Steve Scherf et al.
# Submitted via: CDex 1.51
#
DISCID=d9082f0f
DTITLE=Petr Brandejs Band - Bound To Ride
DYEAR=1900
DGENRE=Country
TTITLE0=I´ll Take Rain
TTITLE1=Cloce By
TTITLE2=I Saw Your Face In  The Moon
TTITLE3=Freight  Train Boogie
TTITLE4=Once Upon A Heartbeat
TTITLE5=Hopsa Hejsa
TTITLE6=Thinking  Of You
TTITLE7=Bound To Ride
TTITLE8=Hungry Blues
TTITLE9=Find Them, Fool Them And Lave Them Alone
TTITLE10=Keep Me On Your Mind
TTITLE11=Sit Down Please
TTITLE12=Is My Home Still  Up There
TTITLE13=Your Big Brown Eyes
TTITLE14=Nobody Loves Me
EXTD=
EXTT0=
EXTT1=
EXTT2=
EXTT3=
EXTT4=
EXTT5=
EXTT6=
EXTT7=
EXTT8=
EXTT9=
EXTT10=
EXTT11=
EXTT12=
EXTT13=
EXTT14=
PLAYORDER=
